<?xml version="1.0" encoding="UTF-8"?>
<svg width="24px" height="24px" viewBox="0 0 24 24" version="1.1" xmlns="http://www.w3.org/2000/svg" xmlns:xlink="http://www.w3.org/1999/xlink">
    <!-- Generator: Sketch 61.2 (89653) - https://sketch.com -->
    <title>icn-ball-claimed</title>
    <desc>Created with Sketch.</desc>
    <g id="Page-1" stroke="none" stroke-width="1" fill="none" fill-rule="evenodd">
        <g id="kings-6-history" transform="translate(-335.000000, -420.000000)">
            <g id="list" transform="translate(0.000000, 288.000000)">
                <g id="Group-9" transform="translate(0.000000, 48.000000)">
                    <g id="Group-8-Copy-2" transform="translate(0.000000, 64.000000)">
                        <g id="Group" transform="translate(335.000000, 20.000000)">
                            <g id="18679">
                                <path d="M23.7944071,12.0074336 C23.7944071,18.5322478 18.5050619,23.8215929 11.9806726,23.8215929 C5.45585841,23.8215929 0.166938053,18.5322478 0.166938053,12.0074336 C0.166938053,5.48304425 5.45585841,0.193699115 11.9806726,0.193699115 C18.5050619,0.193699115 23.7944071,5.48304425 23.7944071,12.0074336" id="Fill-1" fill="#5B4099"></path>
                                <path d="M23.4127434,11.8950796 C23.4127434,18.0601062 18.2943717,23.0578407 11.9806726,23.0578407 C5.66676106,23.0578407 0.54860177,18.0601062 0.54860177,11.8950796 C0.54860177,5.73026549 5.66676106,0.732530973 11.9806726,0.732530973 C18.2943717,0.732530973 23.4127434,5.73026549 23.4127434,11.8950796" id="Fill-2" fill="#5B4099"></path>
                                <path d="M14.6433982,22.7534867 L14.6433982,22.7534867 C14.6421239,22.7492389 14.6419115,22.744354 14.6425487,22.7384071 C15.2038938,18.4101239 13.9656637,14.3224779 12.9716814,10.1726018 C12.520354,8.28849558 11.8421947,6.4339115 10.8838938,4.74180531 C10.095292,4.99242478 9.32304425,5.2940177 8.58074336,5.65975221 C8.46053097,5.71922124 8.34477876,5.78378761 8.22647788,5.84516814 C8.28424779,6.24063717 8.26513274,6.63886726 8.15235398,6.98888496 C7.39815929,9.33302655 5.7060531,11.2296637 4.776,13.4998938 C4.1679292,14.9849204 3.88056637,16.3949735 4.00566372,17.9953274 C4.08127434,18.9580885 4.25054867,19.5069027 4.78938053,20.2549381 C4.944,20.4692389 5.09246018,20.6648496 5.21373451,20.8931681 C5.08375221,20.7997168 4.95589381,20.7039292 4.83015929,20.6053805 C4.58569912,20.3144071 4.32297345,20.0383009 4.1379823,19.7023009 C3.82237168,19.1286372 3.78095575,18.1529204 3.75844248,17.5134159 C3.70258407,15.8971327 4.05727434,14.4072212 4.69932743,12.9262301 C5.448,11.2001416 6.47469027,9.54095575 7.12842478,7.7819469 C7.30810619,7.29876106 7.39327434,6.79221239 7.38159292,6.31730973 C5.78654867,7.27051327 4.40516814,8.47730973 3.35235398,10.0681062 C2.72070796,11.0230088 2.14237168,12.0378053 1.70888496,13.1003894 C1.66980531,13.1959646 1.6360354,13.2909027 1.60630088,13.3856283 C1.54024779,13.5961062 1.49458407,13.8046726 1.45699115,14.012177 C1.36672566,14.5093805 1.32297345,15.0004248 1.15667257,15.4969912 C1.14477876,15.4625841 1.13288496,15.4275398 1.12099115,15.3929204 C1.24757522,14.7149735 1.20382301,14.0555044 1.38456637,13.360354 C1.41387611,13.2475752 1.44913274,13.1337345 1.49182301,13.0188319 C1.53217699,12.9107257 1.57316814,12.8028319 1.61500885,12.6953628 C2.00410619,11.6960708 2.46520354,10.7305487 3.06775221,9.83787611 C4.19830088,8.16361062 5.60155752,6.77352212 7.32424779,5.77720354 C7.14371681,4.89982301 6.5560354,4.23759292 5.49026549,4.23759292 C5.30463717,4.23759292 5.10414159,4.25776991 4.88920354,4.30024779 C4.87539823,4.30300885 4.86180531,4.30576991 4.84778761,4.30874336 C4.55553982,4.3699115 4.13373451,4.47525664 3.72849558,4.62753982 C3.46789381,4.72523894 3.2140885,4.84247788 3.0059469,4.97968142 C3.15907965,4.79065487 3.31815929,4.60651327 3.48318584,4.42768142 C3.71893805,4.28665487 3.98081416,4.16729204 4.25267257,4.06916814 C4.64580531,3.92729204 5.05975221,3.82980531 5.44693805,3.77564602 C5.69012389,3.74166372 5.92247788,3.72488496 6.13253097,3.72488496 C6.17330973,3.72488496 6.21345133,3.72552212 6.25231858,3.72679646 C7.17961062,3.75695575 7.83865487,4.49713274 8.11497345,5.36028319 C8.22690265,5.30633628 8.33479646,5.24707965 8.44927434,5.19653097 C9.18307965,4.872 9.92155752,4.59823009 10.6661947,4.36545133 C10.3970973,3.96382301 9.29479646,2.51256637 8.58966372,1.81656637 C8.52127434,1.74881416 8.45670796,1.68849558 8.39681416,1.63667257 C8.25302655,1.51263717 8.13727434,1.43893805 8.06548673,1.43893805 C8.04722124,1.43893805 8.0319292,1.44361062 8.01961062,1.45359292 L7.99837168,1.42938053 C7.99879646,1.42895575 7.99922124,1.42853097 7.99964602,1.42810619 C8.05146903,1.40920354 8.10350442,1.39072566 8.15575221,1.37267257 C8.2579115,1.45529204 8.3579469,1.53663717 8.4560708,1.61713274 C8.52530973,1.6740531 8.59369912,1.73033628 8.66081416,1.78619469 C9.60828319,2.57373451 10.371823,3.29373451 11.0304425,4.25352212 C11.3900177,4.14945133 11.7504425,4.05281416 12.1142655,3.97146903 C12.0097699,3.70725664 11.9728142,3.42180531 12.0388673,3.11617699 C12.2482832,2.1440708 12.7329558,1.36375221 13.5532035,0.837238938 C13.5818761,0.841061947 13.6094867,0.844884956 13.6379469,0.848920354 C12.7682124,1.59185841 12.2021947,2.8419823 12.683469,3.86038938 C13.7052743,3.66732743 14.7466195,3.56113274 15.8202478,3.56113274 C15.8663363,3.56113274 15.9124248,3.56113274 15.9585133,3.56155752 C17.2145841,3.57238938 18.5163186,3.56410619 19.6610973,4.15284956 C19.9801062,4.31681416 20.3413805,4.4720708 20.683115,4.656 C20.9216283,4.92934513 21.1469735,5.2139469 21.3583009,5.50895575 C19.8539469,4.25755752 17.6945841,3.96488496 15.7953982,3.96488496 C15.6486372,3.96488496 15.5031504,3.96658407 15.3597876,3.96976991 C14.5389027,3.98846018 13.7205664,4.07766372 12.9124248,4.22527434 C13.0591858,4.41069027 13.244177,4.58506195 13.4835398,4.73968142 C14.2116106,5.21139823 15.0624425,5.53784071 15.888,5.7999292 C17.1179469,6.19115044 18.4772389,6.56155752 19.5735929,7.26435398 C21.5611327,8.53784071 23.2734159,10.764531 23.2557134,13.2004248 C23.2553628,13.2446018 23.2130973,13.2770973 23.1774159,13.2770973 C23.1532035,13.2770973 23.1319646,13.2622301 23.1289912,13.2256991 C22.9473982,10.8790088 21.2238584,8.21968142 18.9941947,7.27964602 C17.3587965,6.59023009 15.487646,6.47150442 13.9155398,5.6419115 C13.3798938,5.35943363 12.7040708,4.91766372 12.3166726,4.3480354 C11.964531,4.42661947 11.6155752,4.51858407 11.2693805,4.61946903 C11.4539469,4.91681416 11.6306549,5.23752212 11.8007788,5.5900885 C12.6609558,7.37054867 13.1301239,9.17054867 13.6540885,11.0652743 C14.6788673,14.7704071 15.4821239,18.9086018 14.7024425,22.739469 C14.6826903,22.744354 14.6631504,22.7488142 14.6433982,22.7534867" id="Fill-7" fill="#FFFFFF" opacity="0.466355097"></path>
                            </g>
                            <g id="round-check_circle_outline-24px"></g>
                            <polygon id="Path" points="0 0 24 0 24 24 0 24"></polygon>
                            <path d="M15.88,8.29 L10,14.17 L8.12,12.29 C7.73,11.9 7.1,11.9 6.71,12.29 C6.32,12.68 6.32,13.31 6.71,13.7 L9.3,16.29 C9.69,16.68 10.32,16.68 10.71,16.29 L17.3,9.7 C17.69,9.31 17.69,8.68 17.3,8.29 C16.91,7.9 16.27,7.9 15.88,8.29 Z" id="Path" fill="#FFFFFF" fill-rule="nonzero"></path>
                        </g>
                    </g>
                </g>
            </g>
        </g>
    </g>
</svg>