<?xml version="1.0" encoding="UTF-8"?>
<svg width="24px" height="24px" viewBox="0 0 24 24" version="1.1" xmlns="http://www.w3.org/2000/svg" xmlns:xlink="http://www.w3.org/1999/xlink">
    <!-- Generator: Sketch 61.2 (89653) - https://sketch.com -->
    <title>icn-more</title>
    <desc>Created with Sketch.</desc>
    <g id="Page-1" stroke="none" stroke-width="1" fill="none" fill-rule="evenodd">
        <g id="kings-5" transform="translate(-340.000000, -222.000000)" fill="#000000" fill-rule="nonzero">
            <g id="Group-3" transform="translate(340.000000, 222.000000)">
                <path d="M19.666,15.148 C20.018,15.148 20.3516667,15.082 20.667,14.95 C20.9823333,14.818 21.2573333,14.6346667 21.492,14.4 C21.7266667,14.1653333 21.91,13.8903333 22.042,13.575 C22.174,13.2596667 22.24,12.926 22.24,12.574 C22.24,12.222 22.174,11.8883333 22.042,11.573 C21.91,11.2576667 21.7266667,10.9826667 21.492,10.748 C21.2573333,10.5133333 20.9823333,10.33 20.667,10.198 C20.3516667,10.066 20.018,10 19.666,10 C19.314,10 18.9803333,10.066 18.665,10.198 C18.3496667,10.33 18.0746667,10.5133333 17.84,10.748 C17.6053333,10.9826667 17.422,11.2576667 17.29,11.573 C17.158,11.8883333 17.092,12.222 17.092,12.574 C17.092,12.926 17.158,13.2596667 17.29,13.575 C17.422,13.8903333 17.6053333,14.1653333 17.84,14.4 C18.0746667,14.6346667 18.3496667,14.818 18.665,14.95 C18.9803333,15.082 19.314,15.148 19.666,15.148 Z M12.12,15.148 C12.472,15.148 12.8056667,15.082 13.121,14.95 C13.4363333,14.818 13.7113333,14.6346667 13.946,14.4 C14.1806667,14.1653333 14.364,13.8903333 14.496,13.575 C14.628,13.2596667 14.694,12.926 14.694,12.574 C14.694,12.222 14.628,11.8883333 14.496,11.573 C14.364,11.2576667 14.1806667,10.9826667 13.946,10.748 C13.7113333,10.5133333 13.4363333,10.33 13.121,10.198 C12.8056667,10.066 12.472,10 12.12,10 C11.768,10 11.4343333,10.066 11.119,10.198 C10.8036667,10.33 10.5286667,10.5133333 10.294,10.748 C10.0593333,10.9826667 9.876,11.2576667 9.744,11.573 C9.612,11.8883333 9.546,12.222 9.546,12.574 C9.546,12.926 9.612,13.2596667 9.744,13.575 C9.876,13.8903333 10.0593333,14.1653333 10.294,14.4 C10.5286667,14.6346667 10.8036667,14.818 11.119,14.95 C11.4343333,15.082 11.768,15.148 12.12,15.148 Z M4.574,15.148 C4.926,15.148 5.25966667,15.082 5.575,14.95 C5.89033333,14.818 6.16533333,14.6346667 6.4,14.4 C6.63466667,14.1653333 6.818,13.8903333 6.95,13.575 C7.082,13.2596667 7.148,12.926 7.148,12.574 C7.148,12.222 7.082,11.8883333 6.95,11.573 C6.818,11.2576667 6.63466667,10.9826667 6.4,10.748 C6.16533333,10.5133333 5.89033333,10.33 5.575,10.198 C5.25966667,10.066 4.926,10 4.574,10 C4.222,10 3.88833333,10.066 3.573,10.198 C3.25766667,10.33 2.98266667,10.5133333 2.748,10.748 C2.51333333,10.9826667 2.33,11.2576667 2.198,11.573 C2.066,11.8883333 2,12.222 2,12.574 C2,12.926 2.066,13.2596667 2.198,13.575 C2.33,13.8903333 2.51333333,14.1653333 2.748,14.4 C2.98266667,14.6346667 3.25766667,14.818 3.573,14.95 C3.88833333,15.082 4.222,15.148 4.574,15.148 Z" id="…"></path>
            </g>
        </g>
    </g>
</svg>