<?xml version="1.0" encoding="UTF-8"?>
<svg width="24px" height="24px" viewBox="0 0 24 24" version="1.1" xmlns="http://www.w3.org/2000/svg" xmlns:xlink="http://www.w3.org/1999/xlink">
    <!-- Generator: Sketch 61.2 (89653) - https://sketch.com -->
    <title>icn-match-start</title>
    <desc>Created with Sketch.</desc>
    <g id="Page-1" stroke="none" stroke-width="1" fill="none" fill-rule="evenodd">
        <g id="kings-6-history" transform="translate(-335.000000, -484.000000)" fill="#A6A6A6" fill-rule="nonzero">
            <g id="list" transform="translate(0.000000, 288.000000)">
                <g id="Group-9" transform="translate(0.000000, 48.000000)">
                    <g id="Group-8-Copy-3" transform="translate(0.000000, 128.000000)">
                        <g id="Group-3" transform="translate(335.000000, 20.000000)">
                            <path d="M8.5,9 C4.91014913,9 2,11.9101491 2,15.5 C2,19.0898509 4.91014913,22 8.5,22 C12.0898509,22 15,19.0898509 15,15.5 L15,13.91 L22,12 L22,9 L11,9 L11,11 L9,11 L9,9 L8.5,9 Z M11,2 L11,7 L9,7 L9,2 L11,2 Z M6.35,7.28 C5.68,7.44 5.04,7.68 4.43,8 L2.14,4.88 L3.76,3.7 L6.35,7.28 Z M17.86,4.88 L16.32,7 L13.85,7 L16.24,3.7 L17.86,4.88 Z" id="Shape"></path>
                        </g>
                    </g>
                </g>
            </g>
        </g>
    </g>
</svg>