<?xml version="1.0" encoding="UTF-8"?>
<svg width="68px" height="56px" viewBox="0 0 68 56" version="1.1" xmlns="http://www.w3.org/2000/svg" xmlns:xlink="http://www.w3.org/1999/xlink">
    <!-- Generator: Sketch 61.2 (89653) - https://sketch.com -->
    <title>logo-taipans</title>
    <desc>Created with Sketch.</desc>
    <g id="Page-1" stroke="none" stroke-width="1" fill="none" fill-rule="evenodd">
        <g id="sydney-1" transform="translate(-275.000000, -223.000000)">
            <g id="logo-taipans" transform="translate(275.000000, 223.000000)">
                <path d="M4.1591947,14.1593798 C7.4568434,14.2039361 12.1743136,14.2336455 15.6246395,14.2039361 C15.7773067,14.1890853 15.6857064,16.5506979 15.7467733,17.0853984 C15.9757742,16.9962781 18.3879448,16.5952542 18.9680864,16.2982013 C18.2486478,15.4730293 17.6618466,14.5465887 17.2276537,13.5504098 C17.7009282,13.4910008 17.4566566,13.4464387 17.9146644,13.3870297 C17.4719233,12.1393841 17.1665868,11.2927703 17.4871901,9.65894964 C17.1818535,9.62924609 16.4948429,9.67380624 16.5406431,9.58468787 C18.4948059,6.46557208 19.380284,5.84175897 21.6245167,4.08911257 C23.9908871,4.19308754 27.2885318,4.29705285 30.0365744,4.19308754 C31.0747237,4.90602288 31.5785257,5.52984565 34.1433676,5.60411128 C36.5250028,5.55955113 38.1280269,4.60896617 38.1280269,4.11881805 C40.738661,4.05940902 43.6393748,4.11881805 46.0362728,4 C48.1125714,5.17337605 50.1430699,6.53984351 51.6086856,9.22821827 C51.7308234,9.27277455 50.7537449,9.45100936 50.8758827,9.48071483 C51.3491512,10.3867416 51.2575548,10.8917424 51.1354171,12.1839462 C51.6850252,12.644385 53.2575139,15.2287906 53.1659076,16.6249616 C53.5937912,16.6546534 54.0237123,16.639715 54.4483285,16.5804014 C57.6543769,12.2285025 63.318396,14.5901151 66.9061085,15.0951121 C67.1351174,21.7640557 65.990101,25.1950906 65.990101,25.1950906 L65.1656838,25.1059703 C66.1275055,28.0022834 63.5931971,31.9828619 63.5931971,31.9828619 C63.5931971,31.9828619 65.5626306,33.0077106 66.9061085,35.4732943 C67.7457924,40.4787234 62.6771895,45.7812053 62.6771895,45.7812053 C62.6771895,45.7812053 65.822165,50.0291312 65.6084288,52.494713 C62.4176472,50.667801 59.0742023,49.1379572 59.0742023,49.1379572 C57.7176308,50.4736817 56.0758784,51.503009 54.2651338,52.1530923 C49.8682609,52.613531 43.9752448,49.1379572 43.9752448,49.1379572 C43.9752448,50.875747 40.6012684,56 33.8227643,56 C26.8915989,56 23.3344139,50.8014853 23.3344139,49.1825174 C23.3344139,49.1825174 19.8840979,51.9897102 13.4720012,51.9897102 C7.22784052,50.2370696 0.556209473,40.0925367 1.42642282,35.4287283 C3.47218604,32.2353585 5.86908794,30.928302 5.86908794,30.928302 C4.55613555,27.868601 3.9912607,26.0119932 3.9912607,26.0119932 L1.19742789,26.1308151 C-0.772009648,19.0459851 0.281406407,14.1593798 0.281406407,14.1593798 L4.1591947,14.1593798 Z" id="Path" fill="#E7D2AD"></path>
                <polygon id="Path" fill="#CEAB7B" points="7 20.3906655 10.1081926 24 12 19.5782195 8.90685585 16"></polygon>
                <polygon id="Path" fill="#CEAB7B" points="10 29.6414134 13.5734305 32 14 27.3434346 10.4401059 25"></polygon>
                <polygon id="Path" fill="#CEAB7B" points="15.0327169 35.9401903 20 37 18.9344239 32.0598097 14 31"></polygon>
                <polygon id="Path" fill="#CEAB7B" points="21.3231881 40 26 39.5854083 23.6615941 36 19 36.4147658"></polygon>
                <polygon id="Path" fill="#CEAB7B" points="29.5781071 43 34 41.10236 30.4062333 38 26 39.8674533"></polygon>
                <polygon id="Path" fill="#CEAB7B" points="38.3976252 43 42 39.89764 37.5867458 38 34 41.10236"></polygon>
                <polygon id="Path" fill="#CEAB7B" points="45.6514819 40 48 36.4265695 43.3485181 36 41 39.5600677"></polygon>
                <polygon id="Path" fill="#CEAB7B" points="52.9401903 35.9672831 54 31 49.0761504 32.0655761 48 37"></polygon>
                <polygon id="Path" fill="#CEAB7B" points="58 29.6818515 57.5734305 25 54 27.3485181 54.426743 32"></polygon>
                <polygon id="Path" fill="#CEAB7B" points="61 20.4006444 59.0270895 16 56 19.5676477 57.8674533 24"></polygon>
                <path d="M54.6882144,29 C57.9941363,29.5146492 64.892766,35.2199006 64.9984294,36.4844665 C65.1493866,44.7923701 54.3712066,51.7915956 53.1182865,51.9974549 C49.5255572,52.0709793 46.4913668,50.541732 42.551445,48.6742923 C39.3512001,46.6598098 36.4528657,45.77756 36,44.7041475 C37.1170661,44.4541721 44.5138553,41.5133198 44.5138553,41.5133198 L53.2843371,40.6163603 L56.846858,35.0581613 C56.846858,35.0581613 55.2769302,30.985082 54.6882065,29.0147098 L54.6882144,29 Z" id="Path" fill="#1C2651"></path>
                <path d="M56,30 C56,30 59.4885893,30.7544898 60,31.413172 C59.0684925,31.4371223 57.0958943,32 57.0958943,32 L56,30 Z" id="Path" fill="#CEAB7B"></path>
                <path d="M58,33.7962126 L60.8130059,33 C60.8130059,33 61.788618,34.5213231 62,36 L61.5121982,35.4312748 C60.6178839,35.5592392 58.5853639,36 58.5853639,36 L58,33.7962126 Z" id="Path" fill="#CEAB7B"></path>
                <path d="M62.0135186,34 C62.0135186,34 63.472975,35.0526329 64,36 C63.5069578,35.8926676 62.9966923,35.883718 62.5,35.9736912 C62.3243315,35.1842127 62,34 62,34 L62.0135186,34 Z" id="Path" fill="#CEAB7B"></path>
                <path d="M62.2657418,37.0396297 C62.8428562,36.9986405 63.4218439,36.9894386 64,37.0120669 C63.7703072,38.8141052 63.0823678,40.5298033 62,42 C62.1678373,41.0079231 62.2797222,40.0020675 62.3496495,38.9824421 C62.3775715,38.3336655 62.3495013,37.6837247 62.2657418,37.0396297 Z" id="Path" fill="#CEAB7B"></path>
                <path d="M60,45.0138407 C56.5808188,48.3633197 54,49 54,49 C54,49 55.512326,47.5882361 55.9232849,46.7301049 C56.6136973,46.4809619 58.1753421,45.8442923 60,45 L60,45.0138407 Z" id="Path" fill="#E7D2AD"></path>
                <path d="M56,47.6028896 C52.8462795,49.9711194 51.5074418,50 51.5074418,50 C49.9373301,49.9548641 48.3974006,49.5700551 47,48.8736471 C49.7223165,47.7328483 50.9570231,46 50.9570231,46 C50.9570231,46 54.2148747,47.5018039 56,47.6028896 Z" id="Path" fill="#E7D2AD"></path>
                <path d="M49,45.9109353 C47.487881,47.2064781 43.5476573,48 43.5476573,48 C43.5476573,48 41.1050076,47.0283403 40,45.8299582 C42.0064576,45.4251002 43.7221323,44.0809687 43.7221323,44.0809687 L46.6155023,44 C47.3680032,44.6927457 48.1596122,45.3310337 48.9854568,45.9109353 L49,45.9109353 Z" id="Path" fill="#E7D2AD"></path>
                <path d="M1.04398015,15.3318361 L14.6562035,15.3016668 L14.6259841,18.1072507 C16.5749044,17.8960779 20.0648303,16.7949626 20.0648303,16.7949626 L20.2763406,17.6094848 L24.7482796,17.6094848 L24.7482796,17.3078101 C30.0058309,17.9413268 29.5676946,17.3983159 32.2569081,17.4737341 C34.9461177,17.5642398 35.7468359,18.3485928 35.7468359,18.3485928 L35.7770495,18.1675912 C38.3907184,18.4390947 43.4216497,16.7949626 43.4216497,16.7949626 L43.5576233,17.5793234 L54.0273969,17.639656 C54.0273969,17.639656 55.4626501,15 59.526678,15 C61.7022204,15 64.0892713,15.9351953 64.9655262,16.1614577 C65.1770425,21.2899471 64.3461029,24.4122972 64.3461029,24.4122972 L62.8806342,24.3972136 C63.2162941,25.1350527 63.3765831,25.9403715 63.348984,26.7502825 C63.0770329,32.1050284 56.7317221,39.8731896 52.214454,40.2804517 C49.5705716,40.5368735 48.5583529,38.168721 48.5583529,38.168721 C36.5324582,31.7128539 18.0252772,34.5787782 12.1331948,42 C10.2763533,39.1774349 8.59129555,36.245881 7.08715574,33.2212293 L7.60082488,32.949712 C5.71232169,29.2692655 4.77563184,25.1513875 4.77563184,25.1513875 C4.77563184,25.1513875 1.81448288,25.3625604 1.79937513,25.3173036 C1.12318773,22.0344956 0.874368386,18.6782592 1.05908789,15.3318302 L1.04398015,15.3318361 Z" id="Path" fill="#1C2651"></path>
                <path d="M2.01582808,16 L13.4056712,16.0301864 L13.3906847,19.2150943 C15.7285984,19.3509459 19.1605386,18.0830188 19.1605386,18.0830188 C19.1605386,18.0830188 19.8499224,22.6113208 21.0788291,26.4603767 C20.9439488,24.5132075 20.9589372,22.460377 20.9589372,22.460377 L20.314509,22.460377 L20.4194163,18.6867901 L25.6497512,18.6867901 L25.6797241,18.4754715 C28.6320893,18.8679222 28.7669715,18.5207521 31.8991782,18.4905637 C34.6717076,18.4754715 35.5259445,19.5924528 36.0654596,20.3622581 C36.1553824,19.9848996 36.395168,19.2150884 36.395168,19.2150884 C38.9129233,19.260369 42.3148886,18.0830129 42.3148886,18.0830129 C42.3148886,18.0830129 43.5138204,23.6830136 43.4089151,26.5207534 C43.7685944,25.6150867 44.008378,22.4603711 44.008378,22.4603711 L43.3489672,22.4301827 L43.5138204,18.686794 L54.7837697,18.6566037 C54.7837697,18.6566037 55.8178522,16.0754847 59.5495219,16.0301903 C61.4977833,16 63.1313268,16.8150957 63.9705832,16.9056608 C64.0707817,19.0400252 63.9147897,21.1787681 63.5059927,23.2754727 L61.1830673,23.139625 C61.1830673,23.139625 62.4868966,25.0566098 62.3520223,26.7320818 C61.96237,31.7283093 55.9077691,39.0490645 52.2060704,39.1849161 C49.6433536,39.260385 48.9389795,35.8792449 48.9389795,35.8792449 L48.1446943,36.9509456 C39.9619923,33.0566033 32.1689406,33.5245308 32.1689406,33.5245308 L32.7384326,29.4188659 L33.442795,29.4037718 L33.9673295,27.6075424 C33.15552,27.9401387 32.2655509,28.0292528 31.4046147,27.8641514 L31.3746437,29.4037718 L31.9741067,29.4339601 L31.8092535,33.5245288 C21.9930061,33.5245288 15.5937143,37.7811296 15.5937143,37.7811296 L15.3389422,37.2830216 C13.9301978,38.2792475 12.1467818,40 12.1467818,40 C9.94375803,36.3471685 8.35517201,33.3283123 8.35517201,33.3283123 L8.81975668,33.0867995 C7.33136237,30.0980243 6.21876522,26.9339988 5.50771027,23.6679371 L2.58531809,23.8641556 C1.85097489,20.9056605 2.01582808,16.0150903 2.01582808,16.0150903 L2.01582808,16 Z" id="Path" fill="#F79239"></path>
                <path d="M3.0154294,16 L12.3590944,16 C12.3160365,19.0715211 12.5026245,21.6437394 12.5026245,21.6437394 L10.3927628,21.749649 C10.1631187,20.2063212 10.2635872,18.6629954 9.53159525,18.7537784 C9.40241966,24.8665715 12.1581482,30.5557043 12.3590944,30.9491015 C12.6892088,31.5997233 13.0336665,31.3273682 13.0336665,31.3273682 L15,35.5488298 C13.989348,36.2932715 13.0300854,37.1123858 12.129441,38 C10.450164,35.1100352 9.40241032,32.900961 9.40241032,32.900961 C9.40241032,32.900961 9.90475818,32.840433 9.53158591,32.0687691 C6.43138478,25.5020549 6.02950537,21.4167778 5.91468428,18.799168 C4.99610437,18.9656056 5.59892069,22.022008 5.59892069,22.022008 L3.46035551,22.1581826 C2.87190117,19.5405768 3.0154294,16 3.0154294,16 Z" id="Path" fill="#1C2651"></path>
                <path d="M13.8355378,18.8485394 C15.7880878,18.8192798 18.6101311,18 18.6101311,18 C19.9830183,25.4320166 21.8440397,29.1333922 21.8440397,29.1333922 C21.8421768,29.2525001 21.905957,29.3637186 22.011837,29.4259938 C22.1114488,29.4995677 22.2402162,29.5264139 22.3626859,29.4991408 C22.7745513,29.4259938 22.6677724,29.2065393 22.6677724,29.2065393 C22.6677724,29.2065393 21.6914944,24.7005193 21.8593017,20.9845101 C21.9050681,20.2091292 21.2491327,20.4578318 21.2491327,20.4578318 L21.2796409,18.3511188 L26.4203392,18.3218612 L26.3288105,20.4285684 C26.3288105,20.4285684 25.7033853,20.3115339 25.6881312,20.6626489 C25.5990054,23.3093789 25.700943,25.9588517 25.9932137,28.5920842 C26.0847425,29.2650641 26.633899,29.01635 26.633899,29.01635 L27,31.5473366 C24.4035714,31.9174978 21.8531438,32.5400353 19.3881094,33.4053336 L18.0609865,30.2745255 C18.0609865,30.2745255 18.5643786,30.3037851 18.4575977,30.0111874 C18.3355627,29.7185877 17.8169165,28.5920842 17.8169165,28.5920842 L16.7643718,28.7237542 L17.0694563,29.981924 C17.2219996,30.5963867 17.7253917,30.3476726 17.7253917,30.3476726 L19.1745357,33.5077478 C17.7558861,34.0636857 15.8948627,35 15.8948627,35 C15.1474026,33.8149792 14.4609609,32.6006892 13.8355338,31.3425137 C13.8355338,31.3425137 14.3541781,31.4302963 14.1406203,30.8158374 C12.2643409,25.1247852 13.1033278,21.6282286 13.8355338,18.8631692 L13.8355378,18.8485394 Z" id="Path" fill="#1C2651"></path>
                <path d="M27.0750789,18.0766755 C29.7854775,18.337352 30.2468272,18 32.2796266,18 C35.2639573,18 36.028054,19.2573945 35.9992221,21.3428279 C35.9415564,26.4030736 32.8274738,25.9430503 32.8274738,25.9430503 C32.2345679,25.9741948 31.6417211,25.8803899 31.083014,25.667028 L31.0109277,28.7031758 C30.9820939,29.331878 31.5876087,29.1171953 31.5876087,29.1171953 L31.4866923,31.6779899 C29.6268899,31.7239897 27.5075873,32 27.5075873,32 L27.190414,29.3625378 C27.190414,29.3625378 27.8103437,29.5312128 27.767095,28.994528 C27.562813,26.2144174 27.5098614,23.4240679 27.6085055,20.6374542 C27.6661749,20.3001022 27.0029907,20.3461119 27.0029907,20.3461119 C26.991002,19.5939271 27.0150625,18.8415812 27.0750789,18.0920015 L27.0750789,18.0766755 Z" id="Path" fill="#1C2651"></path>
                <path d="M36.878971,18.8866938 C38.4418798,18.7674308 39.9870853,18.4700446 41.4861917,18 C43.1953234,24.8947892 42.0509516,29.3282441 42.0509516,29.3282441 C42.0509516,29.3282441 41.9469167,29.8327434 42.0806733,29.9091815 C42.21443,30.0009112 42.2441517,29.9397607 42.4819471,29.9397607 C42.6751569,29.9397607 42.7494622,29.6645717 42.7494622,29.6645717 C43.8939164,26.8650655 44.5431745,23.8778279 44.6666637,20.8435247 C44.6815197,20.4154675 44.0127308,20.5377644 44.0127308,20.5377644 L44.1316294,18.3668949 L48.7091265,18.3668949 C48.7091265,18.3668949 49.7643312,21.5620428 49.8089148,24.3138418 C50.2101885,23.1213917 50.3290833,20.9811073 50.3290833,20.9811073 C50.4033983,20.476608 49.6454325,20.5683357 49.6454325,20.5683357 L49.7048819,18.3668949 L54,18.3668949 L53.9256908,20.6141966 C53.758436,20.5701004 53.5807592,20.6096762 53.44622,20.7209941 C53.3116808,20.8323119 53.2360189,21.0023489 53.242042,21.1798484 C52.9745171,28.3345271 47.6539219,35 47.6539219,35 L44.7261052,33.7769806 C45.9161157,31.4578059 46.6103328,28.903716 46.7622072,26.2859704 C46.7622072,26.2859704 46.0785488,28.7931655 45.4543473,29.8480171 C45.0382137,30.5818327 45.8110471,30.5206763 45.8110471,30.5206763 C45.8110471,30.5206763 44.8895952,32.5845325 44.1613647,33.6088109 C40.8917198,32.4928048 37.1167721,32.049454 37.1167721,32.049454 L37.9341795,29.4658227 C38.0417497,29.5092934 38.1629589,29.4979596 38.2611459,29.4352495 C38.3541883,29.3719599 38.4184873,29.2727484 38.4394958,29.1600604 C38.5138031,28.7625823 38.5732524,28.1510697 38.5732524,28.1510697 L37.4883299,28.0746336 C37.3665092,28.3736733 37.2622861,28.6799802 37.1762253,28.9918946 C37.027603,29.5422548 37.5477753,29.4046663 37.5477753,29.4046663 C37.5477753,29.4046663 37.2208128,30.7958574 36.8195352,31.9883055 C35.1995784,31.8201397 33,31.728412 33,31.728412 L33.3566998,29.2365005 C33.3566998,29.2365005 33.8768702,29.4505331 34.0254887,28.7625823 C34.1295042,28.334539 36.3290788,21.3021573 36.878971,18.8866938 Z" id="Path" fill="#1C2651"></path>
                <path d="M60.4162734,16.0153954 C62.0552981,15.9538517 63.2654203,16.6000436 63.9853705,16.7385084 C64.0440793,18.4079949 63.9259777,20.0790209 63.6330553,21.7234358 L61.0596282,21.584967 C61.0596282,21.584967 61.1208977,19.661769 60.3396781,19.6156147 C59.7882265,19.5848399 59.8035444,20.2925754 59.8035444,20.2925754 C59.6963233,21.3387962 62.2850683,23.0773712 62.315702,26.1391046 C62.3463457,29.5546988 56.8012148,37.5706009 52.8644747,37.9860034 C50.9956719,38.1860159 50.5514515,36.2012761 50,34.6627177 C52.5427934,31.0778778 54.2584214,26.4160463 54.2584214,26.4160463 L56.8012188,26.8314507 C56.8012188,26.8314507 54.6873259,31.5240611 55.3766363,31.6779134 C55.8821302,31.8010008 57.1994835,30.5086131 57.6130722,27.893061 C57.9194317,25.9390921 55.1468662,23.0004441 55.4838655,20.5079813 C56.035321,16.4308019 58.4861931,16.0615517 60.4315893,16 L60.4162734,16.0153954 Z" id="Path" fill="#1C2651"></path>
                <path d="M14.7601227,18.8036344 C16.1078968,18.6852848 17.4400958,18.4159077 18.7344801,18 C20.117497,25.4336369 21.3403748,28.308186 21.6752148,29.2663683 C22.0246071,30.2245507 22.4031191,30.0854531 22.4031191,30.0854531 L23,32.3418164 C21.9518155,32.6200076 19.9864718,33.346362 19.9864718,33.346362 C19.5912576,32.5099342 19.2460328,31.6479259 18.9528453,30.7654504 C18.9528453,30.7654504 19.4041469,30.7345396 19.011077,29.6063589 C18.8654977,29.1890823 18.4433139,28.3390827 18.4433139,28.3390827 C17.6862919,28.4781742 16.885598,28.5709066 16.885598,28.5709066 C17.2349902,31.460904 17.9774543,30.9818139 17.9774543,30.9818139 C18.3111123,31.9088433 18.6901383,32.8167462 19.1129845,33.701815 C18.1521514,34.1190936 16.5653177,35 16.5653177,35 L14.9784879,31.8472699 C14.9784879,31.8472699 15.4152297,31.7390871 15.0803934,30.8118115 C12.8530107,24.6609093 14.7601227,18.8036344 14.7601227,18.8036344 Z" id="Path" fill="#FFFFFF"></path>
                <path d="M22.0906297,18.0154906 L26.3957584,18 L26.3504436,19.4867237 C26.3504436,19.4867237 25.7462138,19.3163696 25.7160006,20.3384985 C25.5849595,23.0946206 25.6961834,25.8572415 26.0483257,28.5929168 C26.1238576,29.4911493 26.7280874,29.3517703 26.7280874,29.3517703 C26.7280874,29.3517703 26.8640378,30.5287568 27,31.3185874 C25.6253729,31.5354012 23.6163048,32 23.6163048,32 L22.9969812,29.8008805 C22.9969812,29.8008805 23.5709998,29.8473462 23.3444139,28.7013207 C22.3927495,23.7765387 22.6042298,20.3075194 22.6042298,20.3075194 C22.634443,19.3783118 22,19.5176908 22,19.5176908 L22.0906297,18.0154906 Z" id="Path" fill="#FFFFFF"></path>
                <path d="M27.0624011,19.0754112 C30.1507876,19.3468663 31.3674213,19 32.5996527,19 C35.6724414,19 36,20.5232063 36,21.8503451 C36,26.5707687 32.8492225,26.1334083 32.8492225,26.1334083 L30.7279059,25.8619532 L30.6343154,29.209981 C30.6343154,30.05453 31.2426333,29.9489626 31.2426333,29.9489626 C31.2426333,29.9489626 31.1802444,30.8839979 31.1490428,31.728539 C29.9636005,31.7587031 27.5147294,32 27.5147294,32 L27.2651656,30.1450105 C27.2651656,30.1450105 27.8266902,30.280736 27.779895,29.0742417 C27.5147294,23.765653 27.6551131,21.4431488 27.6551131,21.4431488 C27.6395133,20.4327023 27,20.6136769 27,20.6136769 L27.0624011,19.0754112 Z" id="Path" fill="#FFFFFF"></path>
                <path d="M37.8718421,18.739282 C39.3117311,18.6318836 40.7376661,18.3842801 42.1293258,18 C43.779877,25.1463201 42.5766715,28.919693 42.5766715,28.919693 C42.4224144,29.7513772 42.7926306,29.8745922 42.7926306,29.8745922 C42.7926306,29.8745922 42.0521983,31.5533581 41.7745352,32 C40.5404847,31.6919745 38.3037582,31.4147458 38.3037582,31.4147458 L38.9207845,29.4433477 C38.9207845,29.4433477 39.4761087,29.6127649 39.6149423,28.7502839 C39.6612208,28.4884525 39.7846269,27.4257496 39.7846269,27.4257496 L37.9952501,27.3487407 L37.5170494,28.6116675 C37.2856668,29.3355301 37.8564166,29.3663389 37.8564166,29.3663389 C37.8564166,29.3663389 37.4862004,30.8756876 37.2548138,31.2915307 C36.1133164,31.1221136 34,31.0759115 34,31.0759115 L34.2622376,29.2431279 C34.2622376,29.2431279 34.7095793,29.3355401 34.8946773,28.7502839 C36.4526775,24.0990146 37.8718421,18.739282 37.8718421,18.739282 Z" id="Path" fill="#FFFFFF"></path>
                <path d="M45.0471678,19.0144684 L48.921409,19.0144684 C50.5900942,24.3375129 49.7484956,27.447445 49.7484956,27.447445 C50.5320518,26.6518835 51.0399099,21.3866958 51.0399099,21.3866958 C51.1704992,20.2005811 50.459503,20.4754133 50.459503,20.4754133 L50.4885233,19 L54,19.0289312 L53.9709797,20.4898723 C53.9709797,20.4898723 53.2454659,20.330763 53.2309577,21.3866958 C53.1438932,27.5920953 48.0217642,34 48.0217642,34 C47.2091878,33.6383799 45.729138,33.103186 45.729138,33.103186 C48.8198343,26.6084952 47.1366372,22.992289 47.1366372,22.992289 C47.1366372,22.992289 47.6009687,25.494702 45.7001178,29.4725245 C45.2938324,30.3259446 45.8162026,30.4416637 45.8162026,30.4416637 C45.8162026,30.4416637 44.8440091,32.4956706 44.5392983,32.6692408 C43.6396611,32.408877 42,31.9893927 42,31.9893927 L42.9721897,29.9643264 C42.9721897,29.9643264 43.480046,30.1234357 43.7992744,29.3134096 C44.8253775,26.6978088 45.4136151,23.9319772 45.5405045,21.1263283 C45.511488,20.2584341 44.9310755,20.3886197 44.9310755,20.3886197 L45.0471678,19.0144684 Z" id="Path" fill="#FFFFFF"></path>
                <path d="M59.7373857,16 C61.6457826,16.060736 62.3370185,16.5314615 62.9981933,16.637753 C63.0157657,18.0823326 62.9051259,19.5255952 62.6676029,20.9502064 L60.7742307,20.8439129 C60.7742307,20.8439129 60.7742307,18.7636146 59.7073246,18.7939856 C58.8508013,18.8243585 58.8508013,19.902464 58.8508013,19.902464 C58.7155575,20.8135498 61.4504341,23.4860456 61.3452495,25.5056078 C61.104823,30.2128543 55.214304,36.6815205 52.5094826,36.9852086 C50.7212912,37.182609 50.4958874,35.3604552 50,34.1304929 C52.4644046,30.5165482 53.9670857,26.3103942 53.9670857,26.3103942 L55.7402427,26.5989017 C55.7402427,26.5989017 54.3728015,29.7421308 54.4028568,30.6835797 C54.4028568,31.0480077 54.4028568,31.4883602 54.9738794,31.5187371 C55.3345231,31.5187371 57.1227106,30.2432233 57.4382762,27.1455497 C57.6035734,25.3689473 55.2143,22.8482926 55.3345231,20.2668999 C55.3946297,18.4599226 56.3563473,15.9089009 59.7373857,16.0151944 L59.7373857,16 Z" id="Path" fill="#FFFFFF"></path>
                <path d="M11,22.0603461 L12.6115092,22 C12.2934946,24.3371057 12.4255945,26.7173417 13,29 C12.097795,26.7687177 11.4272665,24.4421001 11,22.0603461 L11,22.0603461 Z" id="Path" fill="#1C2651"></path>
                <path d="M16.2222617,21 C16.2222617,22.4986026 17,25.9019582 17,25.9019582 L16.0000508,26 C16.0000508,26 15.9907921,23.0448185 16.2222617,21 Z" id="Path" fill="#1C2651"></path>
                <path d="M30.1299868,21 C30.8936321,21.0179417 32.0472419,20.82063 31.9985048,22.991028 C31.9335114,25.035867 30.7474038,24.9461797 30,25 L30.1299868,21 Z" id="Path" fill="#1C2651"></path>
                <path d="M39,25.9552244 C39,25.9552244 39.6635527,22.6417946 39.7570096,21 C39.9345789,21.6268698 40,26 40,26 L39,25.9402953 L39,25.9552244 Z" id="Path" fill="#1C2651"></path>
                <path d="M54.6165459,22 C55.1578948,23.8053038 56,26 56,26 L54,25.6814056 C54.3249147,24.4861994 54.531793,23.2509252 54.6165459,22 L54.6165459,22 Z" id="Path" fill="#1C2651"></path>
                <path d="M17.0133823,26 L18,25.9751523 C18,25.9751523 17.2367596,24.6583825 17.1064519,24 C17.0103703,24.6646103 16.9792812,25.332692 17.0133823,26 L17.0133823,26 Z" id="Path" fill="#F79239"></path>
                <path d="M31.109488,21 C31.7253453,21.1028605 31.9716853,21.1542841 31.9990582,22.4399984 C32.0264293,24.0342854 31.4516323,23.9142799 31,24 L31.109488,21 Z" id="Path" fill="#F79239"></path>
                <polygon id="Path" fill="#F79239" points="39 24.9467199 39.763787 23 40 25"></polygon>
                <path d="M3.02099136,16 L12.2497168,16 C12.2166584,17.6544753 12.267654,19.3095492 12.4025106,20.9589589 L10.8440178,21.0194354 C10.6148261,18.3585304 10.278682,17.844489 9.17856871,18.0107979 C9.11745197,23.453561 11.7760561,29.7429813 12.1122041,30.4233276 C12.7080983,31.6328321 13.1512007,31.3758153 13.1512007,31.3758153 C13.1512007,31.3758153 13.9609995,33.1900651 15,35.0043247 C13.8693283,35.8207368 12.4789086,37 12.4789086,37 C11.5621495,35.5939474 10.7217843,34.1425527 9.94253792,32.660905 C9.94253792,32.660905 10.5231529,32.5097246 9.69806897,30.9524818 C5.9393456,23.816418 6.07686026,18.0410293 6.07686026,18.0410293 C4.30445686,17.8747263 4.99202418,21.3520552 4.99202418,21.3520552 L3.43353135,21.4276503 C2.82235797,18.9179297 3.03626856,16.0151186 3.03626856,16.0151186 L3.02099136,16 Z" id="Path" fill="#FFFFFF"></path>
                <path d="M6.84928289,32 C7.07517461,32.4793015 7.52696001,33.3652855 7.52696001,33.3652855 L6.99987803,33.6121964 C8.98771968,37.4611458 9.68046396,36.2992025 11.0207569,38.3471317 C11.2918364,38.7538104 12.0899822,38.9716806 13.1290849,38.7683346 C13.8218213,38.6230891 15.2374128,36.7494538 19.3938276,35.3115436 C23.2490205,33.989382 27.2807499,33.2067985 31.3661123,32.9876494 C41.9679835,32.4647811 50.1603384,37.4466216 51.9524206,38.6085725 C62.1476902,45.2461877 64,52 64,52 C64,52 53.3228401,44.955691 39.7391829,44.2004283 C37.7212148,44.0842387 33.3539637,43.9535174 30.1161772,45.2026095 C27.7819575,46.1031195 22.4810209,49.1822764 20.1618606,50.0973106 C18.0683257,50.90733 15.8596482,51.4068229 13.6109889,51.5787914 C9.52986883,50.0827808 5.91559541,45.464054 5.59934583,45.0573753 C1.42787571,39.8286106 2.03024841,36.5606376 2.03024841,36.5606376 C2.03024841,36.0958622 4.5,33.1038485 6.84928289,32 Z" id="Path" fill="#1C2651"></path>
                <path d="M4.01351337,35 C4.60574195,34.2690429 5.27128169,33.5989769 6,33 C5.78332119,33.62835 5.60729158,34.2696388 5.47297326,34.9199974 C4.98058903,34.9067391 4.48793422,34.933497 4,35 L4.01351337,35 Z" id="Path" fill="#CEAB7B"></path>
                <path d="M6,34.9682684 C6.04621956,34.2974848 6.13823891,33.6372791 6.27433689,33 C6.48767746,33.6600171 6.73021037,34.2936697 7,34.8959007 C7,34.8959007 6.31858422,35.0695789 6,34.9682684 Z" id="Path" fill="#CEAB7B"></path>
                <path d="M3,36 L4.71631151,36 C4.50530396,37.669886 4.60138305,39.3632766 5,41 C3.31206436,38.958329 3,36 3,36 Z" id="Path" fill="#CEAB7B"></path>
                <path d="M6.15381129,36.1226997 C6.72845323,36.2085868 8,36 8,36 C7.86575375,36.657868 7.80424962,37.3285931 7.81660408,38 L6.01932052,38 C6.01932052,38 5.92150862,36.7116586 6.16604235,36.1226997 L6.15381129,36.1226997 Z" id="Path" fill="#CEAB7B"></path>
                <path d="M6,39.1104232 L8.4918023,39 C8.4918023,39 9.24590115,41.2397515 10,42.2334499 C9.40983596,43.0378573 7.42622923,44 7.42622923,44 C6.14753941,41.7760376 6,39.1104232 6,39.1104232 Z" id="Path" fill="#CEAB7B"></path>
                <path d="M9.23404273,36 C9.45077654,36.5798148 9.70737247,37.1270696 10,37.633595 L9,38 C9,38 9.03191454,36.5648884 9.23404273,36.0152651 L9.23404273,36 Z" id="Path" fill="#CEAB7B"></path>
                <polygon id="Path" fill="#CEAB7B" points="9 38.4920979 10.2694256 38 11 38.8096271 9.43114332 40"></polygon>
                <path d="M12,38.8800054 C12.8305087,38.9920084 15,38 15,38 L13.6949088,40 C13.0677946,39.7184007 12.4949363,39.3398563 12,38.8800054 L12,38.8800054 Z" id="Path" fill="#CEAB7B"></path>
                <path d="M9.2805206,40.5433097 L11.7272725,39 C13.0051954,39.8818869 15,41.0629894 15,41.0629894 C15,41.0629894 14.018182,44.0708716 13.0831187,45 C11.5441722,44.5298567 10.1423952,43.6864494 9,42.5433097 L10.0129865,41.7874017 C9.56103714,41.4094487 9.2805206,40.5433097 9.2805206,40.5433097 Z" id="Path" fill="#CEAB7B"></path>
                <path d="M8,43.8228141 L9.13095111,43 C10.5892878,44.8355192 13,45.579213 13,45.579213 C13,45.579213 11.8988086,46.3070919 10.9910696,45.8482079 C10.2470234,45.4684463 8,43.8228141 8,43.8228141 Z" id="Path" fill="#CEAB7B"></path>
                <path d="M15,39.6765494 L16.1180108,38.0692763 C16.1180108,38.0692763 18.5559017,38.1939732 20,38 C19.7670812,39.2747275 17.6863355,42.0181703 17.9658397,41.5886371 C17.7927831,41.8806178 17.4308253,42.0421095 17.0652159,41.9904608 L15.6366453,41.7549154 L16.2732927,40.3831931 L15,39.6765494 Z" id="Path" fill="#CEAB7B"></path>
                <path d="M16,37.9431092 L16.9846148,36.7901324 C18.1692353,35.8343782 21,35 21,35 C21,35 19.3846148,36.9873609 18.8923065,37.9431131 C17.9297385,38.0189636 16.9625677,38.0189623 16,37.9431092 Z" id="Path" fill="#CEAB7B"></path>
                <path d="M20,37.4977702 C20,37.4977702 21.0519012,35.4139137 21.647058,35 C22.4613946,35.08198 23.2566894,35.3038971 24,35.6565592 C24,35.6565592 22.2560536,38.2827885 21.8546683,38.9678859 C21.3757519,39.0107047 20.8941406,39.0107047 20.4152242,38.9678859 L20.9134944,37.3835839 L20,37.4977702 Z" id="Path" fill="#CEAB7B"></path>
                <polygon id="Path" fill="#CEAB7B" points="19.73977 40 21 40 19 41"></polygon>
                <polygon id="Path" fill="#CEAB7B" points="23 39 23.4343939 38 24 38.0570844"></polygon>
                <path d="M21,34.7663544 C22.6296316,34.1775676 25,34 25,34 L23.0592586,35 L21,34.7663544 Z" id="Path" fill="#CEAB7B"></path>
                <path d="M23.5947728,35.0025178 C23.5947728,35.0025178 25.211331,33.6898766 25.8366025,33.1334332 C28.9324635,32.691129 30,33.4901297 30,33.4901297 C30,33.4901297 28.5206992,34.0180378 27.7581723,35.016778 C26.1263657,35.3877403 23.9150327,37 23.9150327,37 L23,36.9286637 L24.326801,35.2736029 L23.5947728,35.0025178 Z" id="Path" fill="#CEAB7B"></path>
                <path d="M28,32.6666884 C30.2259445,32.1389018 32,32 32,32 C31.2979408,32.235687 30.609258,32.5702303 29.9414243,33 C29.2552302,32.6388964 28,32.6666884 28,32.6666884 Z" id="Path" fill="#CEAB7B"></path>
                <path d="M29,35.7078652 C29,35.7078652 29.7093581,35.1573018 30.3891599,35 C31.113298,35.4044946 32,36 32,36 C31.0098508,35.8651641 30.0049235,35.7640488 29,35.6966294 L29,35.7078652 Z" id="Path" fill="#CEAB7B"></path>
                <path d="M31.0761373,33.6255947 C31.934927,33.3042865 32.8366342,33.0938161 33.7563389,33 C36.116745,34.06635 37,34.4786769 37,34.4786769 C37,34.4786769 35.233504,34.7630321 33.0253804,36 C32.355329,35.246452 31,34.3791483 31,34.3791483 L31.7309624,33.9668213 L31.0761373,33.6255947 Z" id="Path" fill="#CEAB7B"></path>
                <path d="M34.0163264,33 C34.0163264,33 35.7632654,33.6190525 36.4163268,34 C37.0530597,33.7301593 38,33.3174576 38,33.3174576 C38,33.3174576 35.5836732,33.0476169 34,33 L34.0163264,33 Z" id="Path" fill="#CEAB7B"></path>
                <path d="M36.6083665,33.8259642 L38.2965773,33 C38.2965773,33 41.8707233,34.150443 44,37.2182947 C43.2243349,37.3952918 42.1901175,38 42.1901175,38 L37.9163492,36.849557 C37.4144495,36.1858447 36,34.8289064 36,34.8289064 L37.3688245,34.4306763 L36.5931595,33.8259585 L36.6083665,33.8259642 Z" id="Path" fill="#CEAB7B"></path>
                <path d="M37,37 C36.1541855,36.7073099 33,36 33,36 L37,37 Z" id="Path" fill="#1C2651"></path>
                <path d="M41,33 C44.3788191,33.8798032 48,35.7692329 48,35.7692329 C48,35.7692329 45.7617061,35.6538456 44.8207715,36 C43.6517279,34.3990347 41,33 41,33 Z" id="Path" fill="#CEAB7B"></path>
                <path d="M45.1785678,36.245182 C45.1785678,36.245182 46.9791638,35.8480344 48.3482103,36.0646518 C49.0778575,36.942125 49.6414769,38.0015885 50,39.1696036 L48.0208362,40 L46.2648886,39.1334999 C46.086311,38.3031035 45,37.3824503 45,37.3824503 L45.5059516,37.0394676 L45.1785678,36.245182 Z" id="Path" fill="#CEAB7B"></path>
                <polygon id="Path" fill="#CEAB7B" points="44.3777296 38 45 39 44 38.2926984"></polygon>
                <path d="M49,37 L50.2903174,38.5967742 L53,39 C51.7609804,38.202679 50.4182713,37.5367378 49,37.0161268 L49,37 Z" id="Path" fill="#CEAB7B"></path>
                <polygon id="Path" fill="#CEAB7B" points="53 40 55 41 53.6190083 40.7825718"></polygon>
                <polygon id="Path" fill="#CEAB7B" points="57 43 57.5714876 43.5862224 59 44"></polygon>
                <polygon id="Path" fill="#CEAB7B" points="49.9931332 39 51.9930434 39.391129 53 41.7555178 51.8275212 42 49.4276289 40.6956706 49 39.9456706 50.1999461 39.6358234"></polygon>
                <path d="M53.8032846,41 L55.9453523,41.4070261 C57.0498534,42.8693438 56.9996514,43.7889464 56.9996514,43.7889464 L56.313523,44 L53,42.1155731 L54.2885941,41.9949749 L53.8032868,41.0150733 L53.8032846,41 Z" id="Path" fill="#CEAB7B"></path>
                <polygon id="Path" fill="#CEAB7B" points="57.6058857 44 59.3496826 45.0407066 60 47 57 44.8112092 57.6355068 44.5510326"></polygon>
                <path d="M55,44 C55.3706482,44.3823462 55.6316036,44.8872286 55.7478005,45.4468037 C57.2047556,46.2059967 58.6243336,47.0583699 60,48 C58.2991149,45.7702138 55,44 55,44 Z" id="Path" fill="#E7D2AD"></path>
                <path d="M48,42.8048809 L48.4060071,41 C48.4060071,41 53.7142885,42.9512168 54,45 C52.7368427,44.1382128 48,42.8048809 48,42.8048809 Z" id="Path" fill="#E7D2AD"></path>
                <path d="M41,39 C41,39 46.3492078,40.5197007 46.7142853,40.6917493 C47.6349143,41.1505407 48,43 48,43 L42.8571391,42.1541253 C42.6507942,41.0358391 41,39 41,39 Z" id="Path" fill="#E7D2AD"></path>
                <path d="M28,37.0496555 C32.5064625,36.7593522 35.6839005,37.8288692 36.0505281,38.0122156 C38.9071666,39.4484313 41,42 41,42 L35.7908324,41.4805242 C35.7908324,41.4805242 33.5757951,39.2345295 28,37.0496555 Z" id="Path" fill="#E7D2AD"></path>
                <path d="M25.2592607,37.2700577 C25.55884,36.9979944 25.9751864,36.9250696 26.3407421,37.0806318 C29.5259256,38.532855 32,41.2478735 32,41.2478735 C32,41.2478735 29.7037073,41.8161268 27.9851823,43 C25.1851874,42.921078 22,40.8216795 22,40.8216795 C23.1407419,39.2274052 25.2592607,37.2700577 25.2592607,37.2700577 Z" id="Path" fill="#E7D2AD"></path>
                <path d="M21.7487626,42 C23.6231381,44.4915816 27,45.0760266 27,45.0760266 C27,45.0760266 24.8578491,46.4909961 24.411569,46.7524557 C22.5371897,47.8290698 18,45.0452687 18,45.0452687 C18,45.0452687 20.4545462,43.5533933 21.7487626,42 Z" id="Path" fill="#E7D2AD"></path>
                <path d="M17.023256,45 C18.39867,46.7826049 21,47.8695654 21,47.8695654 C21,47.8695654 18.727574,49 16.440198,49 C15.54319,49 12,46.5797081 12,46.5797081 C12,46.5797081 14.885382,46.2608721 17.023256,45 Z" id="Path" fill="#E7D2AD"></path>
                <path d="M15,44 L15.6917271,43 C16.1354997,43.0062578 16.5758551,43.0563884 17,43.1489355 C16.3834561,43.5106382 15,44 15,44 Z" id="Path" fill="#CEAB7B"></path>
                <polygon id="Path" fill="#FFFFFF" points="66 26 66 26.1699857 65.6328884 26.1699857 65.6328884 27 65.3796342 27 65.3796342 26.1699857 65 26.1699857 65 26"></polygon>
                <polygon id="Path" fill="#FFFFFF" points="67.3917885 27 67.2062257 26.1898998 67.2062257 27 67 27 67 26 67.3092714 26 67.4948343 26.7700117 67.6907286 26 68 26 68 27 67.7834429 27 67.7834429 26.1898998 67.6082115 27"></polygon>
                <path d="M57.3235282,39 C57.8382368,39.3235319 59,39.5441197 59,39.5441197 C59,39.5441197 58.5882335,41.2352943 58.0147038,42 C57.1029421,41.1176522 56,40.1764739 56,40.1764739 L57.3235282,39 Z" id="Path" fill="#CEAB7B"></path>
                <path d="M57.7517619,37 C57.9264844,37.6326234 58.0107228,38.3143098 57.9989089,39 L57,38.6406242 C57.309755,38.161966 57.5639264,37.6072695 57.7517619,37 L57.7517619,37 Z" id="Path" fill="#CEAB7B"></path>
                <path d="M59.466545,39 C60.3001553,39.095233 61.1423353,39.095233 61.9759456,39 C62.1389051,39.6825347 61.4545156,42.777778 60.5094197,44 C59.2547098,43.6190454 58,42.1746034 58,42.1746034 C58.6650538,41.2023324 59.160579,40.1296782 59.466545,39 L59.466545,39 Z" id="Path" fill="#CEAB7B"></path>
                <path d="M59,36.4371268 C60.7945373,36.515179 61.5088658,36 61.5088658,36 L61.9967014,36.7493496 C61.9967014,36.7493496 62.0315442,38.2792692 61.8747459,38.8256686 C61.1255655,39.1222821 59.5575212,38.9505544 59.5575212,38.9505544 C59.5390089,38.0948556 59.3502084,37.248985 59,36.4527279 L59,36.4371268 Z" id="Path" fill="#CEAB7B"></path>
                <path d="M21.205485,4.20673135 C21.205485,4.20673135 26.4318716,4.33963008 28.8545882,4.20673135 C31.6277721,6.61370186 36.6103571,5.62433122 38.0121821,4.10336183 C39.2768832,4.1328968 44.990847,4 44.990847,4 C48.8306397,6.09687348 49.7753498,8.34140452 49.7753498,8.34140452 L49.3029957,8.4447702 C49.3029957,8.4447702 50.2324687,9.65563871 49.668702,11.6786834 C51.8019137,14.2776187 52,16.7879588 52,16.7879588 L46.0574539,16.7879588 C45.3413122,17.4524582 43.3147542,18.2498563 42.9338228,18.2055548 C43.893766,26.3715316 38.621678,29 38.621678,29 C38.621678,29 40.9224999,25.6184311 39.2006898,19.1358536 C35.9094446,19.2687523 32.709618,16.6107489 32.709618,16.6107489 C31.9934763,18.0726503 27.3156293,19.1358536 27.3156293,19.1358536 C27.3156293,19.1358536 25.8833241,23.0933207 28.031771,28.7046618 C22.7292108,25.8842286 23.7805806,17.8954462 23.7805806,17.8954462 C23.7805806,17.8954462 19.8493673,16.950379 17.7161536,13.5688102 L18.2799322,13.4654406 C16.9390516,10.4973364 17.6094899,8.53336743 17.6094899,8.53336743 L17,8.59243929 C18.5846762,6.17070418 21.205485,4.20673135 21.205485,4.20673135 Z" id="Path" fill="#1C2651"></path>
                <path d="M22.5168254,6.23272625 L27.8838053,6.23272625 C27.8838053,6.23272625 27.3125264,6.64837675 27.147159,7.06403471 C27.6220163,6.78391752 28.1469222,6.58956978 28.6956147,6.49071506 C29.7479624,7.83800674 32.6945417,8.65498063 32.6945417,8.65498063 L31.29642,8.9989657 C31.29642,8.9989657 32.2134631,10.0596032 34.1076948,10.6759116 C36.2725276,10.002276 37.4601759,8.8699713 37.4601759,8.8699713 C36.8901439,8.89600967 36.3221663,8.78770971 35.8064864,8.55465164 C38.0615216,8.51164978 39.143936,6.61971319 39.143936,6.61971319 C39.143936,6.61971319 40.6021913,6.64837675 41.6846097,7.42235623 C41.5793759,6.87770387 40.9028632,6.27572252 40.9028632,6.27572252 C40.9028632,6.27572252 43.9847431,5.917401 45.0521281,6.01772252 C45.8038058,6.07505523 47.8784363,7.39367962 48.5399097,8.46864418 L48.0287703,8.55464418 C48.0287703,8.55464418 50.5393712,11.2635509 47.4875621,12.782837 C47.2506117,11.8543401 46.5959607,11.0728574 45.6985681,10.6472443 C45.6985681,10.6472443 47.6679609,13.5854782 44.8266193,14.3307867 C44.6161497,12.5821753 43.4735997,11.9801977 43.4735997,11.9801977 C43.4735997,11.9801977 44.6161497,14.5171044 42.2709181,15.0474297 C42.2274716,14.0494045 41.7929432,13.1032207 41.0531991,12.3958519 C41.0531991,12.3958519 41.925146,14.4597848 41.2787021,15.3627587 C39.1289026,16.0364036 38.4523958,18 38.4523958,18 C36.7121571,17.9159721 35.1342703,16.9993474 34.2580405,15.5634185 C32.5742823,17.8136822 29.5976401,17.7133495 29.5976401,17.7133495 C29.3133655,16.5977405 28.4778733,15.6835785 27.3576383,15.2624297 C27.3576383,15.2624297 27.0569665,13.6858128 28.5452905,12.0088669 C26.8615323,12.9118407 26.620994,14.9471082 26.620994,14.9471082 L25.1928016,14.3307941 C24.9478469,13.3111625 25.227001,12.2412666 25.9444793,11.4498874 C24.5914598,12.0231996 24.1855522,13.9294726 24.1855522,13.9294726 C24.1855522,13.9294726 21.1487725,13.2271623 23.7796465,10.1312648 C21.9906545,11.1918948 21.8854207,12.3815211 21.8854207,12.3815211 C20.6827352,11.8655379 18.4427354,9.97360315 21.6599139,8.06733012 L20.7278354,8.01000114 C21.1337352,7.13569641 22.5168254,6.23272625 22.5168254,6.23272625 Z" id="Path" fill="#CEAB7B"></path>
                <path d="M19,11 C19.380283,11.5876286 22.9859156,13.2577319 24,17 C20.8309859,15.6546355 20.1126748,12.9329911 20.1126748,12.9329911 C20.0584747,13.3389861 20.0680026,13.7521739 20.1408454,14.1546375 C19.4328572,13.2854679 19.0329654,12.1658747 19.0140844,11 L19,11 Z" id="Path" fill="#CEAB7B"></path>
                <path d="M31,6.0706625 C33.1511703,6.67123969 36,6 36,6 C33.4563958,8.20801278 31,6.0706625 31,6.0706625 Z" id="Path" fill="#CEAB7B"></path>
                <path d="M43.0100588,17.9853698 C42.7531162,15.6146367 47.4904655,14.1073154 49,12 C48.7430615,14.560979 47.1532358,15.5268308 47.1532358,15.5268308 C47.2866661,15.1190625 47.324956,14.6903575 47.2656422,14.2682932 C46.7196459,14.9268328 46.4787681,16.8439043 43.0100588,18 L43.0100588,17.9853698 Z" id="Path" fill="#CEAB7B"></path>
                <path d="M24,15 C24,15 27.5045871,15.8915659 28,17 C26.996197,16.6845909 25.9262956,16.4693684 24.825685,16.3614512 C24.7155895,15.8192822 24,15.0120528 24,15.0120528 L24,15 Z" id="Path" fill="#F79239"></path>
                <path d="M39,17 C39.735323,16.4367763 40.817072,16.0761933 42,16 C41.6885326,16.1659566 41.4449852,16.3730301 41.2883794,16.6050474 C40.1860416,16.5798365 39,17 39,17 Z" id="Path" fill="#F79239"></path>
                <path d="M38.3269929,12.0162403 C38.901214,12.0797259 39.0734805,13.0795987 38.9729928,13.2859265 C38.8868567,13.4922503 37.4225943,13.8890268 37.0062824,15 C36.9057947,13.9683813 38.0398796,11.9686276 38.3269929,12.0003735 L38.3269929,12.0162403 Z" id="Path" fill="#1C2651"></path>
                <path d="M28.6699585,12.0162403 C28.0224729,12.0955968 27.9505309,13.1430885 28.0224729,13.2859265 C28.1231936,13.4922503 29.5764372,13.8890268 29.9937027,15 C30.0944252,13.9683813 28.9577284,11.9686276 28.6699585,12.0003735 L28.6699585,12.0162403 Z" id="Path" fill="#1C2651"></path>
                <path d="M33,12.447062 C33,12.447062 33.6515133,12 34.0151504,12 C34.3787875,12 35,12.447062 35,12.447062 C34.6474188,12.5925653 34.3255253,12.7790277 34.0454532,13 C33.7301711,12.780424 33.3785883,12.5944726 33,12.447062 L33,12.447062 Z" id="Path" fill="#1C2651"></path>
                <path d="M21,8.93326275 C21,8.93326275 22.7310424,7.7993404 24.9184543,8.03128269 C26.3819745,10.6212584 29.2460664,9.912553 29.2460664,9.912553 C30.3351446,10.4398173 31.2740786,11.1515174 32,12 C29.7653742,10.7243392 28.8211741,10.7243392 28.8211741,10.7243392 C24.4935641,12.4638762 23.9270383,9.95121228 23.2188851,8.84306223 C22.6995733,8.53381647 21,8.93326275 21,8.93326275 Z" id="Path" fill="#1C2651"></path>
                <path d="M46,8.93326275 C46,8.93326275 44.2689498,7.7993404 42.0815403,8.03128269 C40.6337611,10.6212584 37.7696697,9.912553 37.7696697,9.912553 C36.6758984,10.4394436 35.7317284,11.1510464 35,12 C37.2346254,10.7243392 38.1945619,10.7243392 38.1945619,10.7243392 C42.5064366,12.4638762 43.0729602,9.95121228 43.7811132,8.84306223 C44.3004271,8.52092781 46,8.93326275 46,8.93326275 Z" id="Path" fill="#1C2651"></path>
                <path d="M24.1490519,8 C24.4128209,8.3687144 24.7538063,8.69331052 25.1551561,8.95774618 C25.1551561,8.95774618 25.1551561,10.1070397 26.1439139,10.6374861 C26.0656857,10.2879116 26.0481517,9.93048986 26.0918701,9.57659903 C26.0918701,9.57659903 27.1847088,10.2838545 28,10.4459349 C24.1490519,12.4940427 23.6806915,8.22101805 24.1490519,8 Z" id="Path" fill="#F79239"></path>
                <path d="M42.850949,8 C42.5924195,8.37198788 42.2506165,8.69736155 41.8448429,8.95774618 C41.8448429,8.95774618 41.8448429,10.1070397 40.8734341,10.6374861 C40.9371984,10.2864821 40.9488545,9.93006856 40.9081292,9.57659903 C40.9081292,9.57659903 39.8152932,10.2838545 39,10.4459349 C42.850949,12.4940427 43.319307,8.22101805 42.850949,8 Z" id="Path" fill="#F79239"></path>
                <path d="M40.0154853,17.8591384 C40.1376629,17.6907421 40.3035351,17.5582161 40.4955348,17.4755958 C40.7278179,17.368197 40.8826707,17.6443488 40.8826707,17.6443488 C40.8826707,17.6443488 42.0440783,19.7615037 41.9201961,23.4128328 C42.7099532,21.6178523 41.7653394,17.705717 41.7498541,17.4142237 C41.7188856,17.1073908 41.8892256,17.0613682 41.8892256,17.0613682 L42.5086426,17 C43.2209753,19.0097661 43.5616533,24.7015344 40.619417,28 C42.0595676,24.5481169 40.8517001,19.0097661 40,17.8591384 L40.0154853,17.8591384 Z" id="Path" fill="#FFFFFF"></path>
                <path d="M25.3261292,18 C25.509802,18.0464818 25.6867774,18.1242545 25.8515024,18.2308779 C25.9168924,18.3078877 25.9560289,18.4106016 25.9614652,18.5194753 C25.6706011,19.9336735 25.6414293,21.4053291 25.8759398,22.8340537 C25.9090572,21.3699624 26.1872757,19.9281008 26.6945491,18.5916285 L27,18.6926394 C26.4746236,19.702736 26.3280071,21.665221 26.3035729,23.959593 C26.3035729,25.4314586 26.3402266,26.8888943 26.7922924,28 C24.1654153,23.8585876 25.1550753,18.1875752 25.3139113,18.0144261 L25.3261292,18 Z" id="Path" fill="#FFFFFF"></path>
                <path d="M48.1016991,15 C48.8745776,15.4776127 50,17 50,17 L46,17 C46,17 47.6542392,15.7462704 48.1016991,15 Z" id="Path" fill="#CEAB7B"></path>
                <path d="M49,14.5333341 C49.1939472,14.0671666 49.350361,13.5505981 49.4642843,13 C49.7944611,13.8823061 49.9805421,14.9243573 50,16 C49.7053556,15.3666605 49,14.5333341 49,14.5333341 Z" id="Path" fill="#CEAB7B"></path>
                <path d="M32.9954139,35 C37.0407856,34.9982048 40.6887393,37.4339333 42.2376651,41.1710263 C43.786591,44.9081194 42.9313268,49.2103121 40.0708156,52.070821 C37.2103044,54.93133 32.9081111,55.7865909 29.1710192,54.2376622 C25.4339274,52.6887334 22.9982017,49.0407779 23,44.9954062 C23.0065386,39.4778036 27.4778113,35.0065344 32.9954139,35 Z" id="Path" fill="#1C2651"></path>
                <path d="M25.0663409,40.4317584 C23.8642701,42.6764111 23.8792939,44.845733 24.1497606,47 C26.8093426,44.047302 29.7594224,42.2696594 33,41.6670723 C31.602593,38.4884057 28.8829094,38.24737 25.0513152,40.4317584 L25.0663409,40.4317584 Z" id="Path" fill="#F79239"></path>
                <path d="M32.8188349,43 C28.9556463,43.8515453 26.0160347,45.8433889 24,48.9755311 C24.3483207,50.2088133 25.1716226,51.133773 26.1374177,52 C30.5705892,49.5774942 33.8162972,46.8466526 32.8188349,43 Z" id="Path" fill="#F79239"></path>
                <path d="M33.4640608,42.4275232 C34.4387297,47.2186724 32.2826382,50.3882065 28,52.4226029 C28.6793138,53.1007299 29.8755,53.6019605 31.4261117,54 C35.5906094,51.656019 37.9239079,48.0589732 36.6538876,42 C35.5798683,42.046141 34.5122369,42.1892326 33.4640608,42.4275232 Z" id="Path" fill="#F79239"></path>
                <path d="M37.5486404,42 C39.2451384,46.9211775 37.7198471,50.8078757 34,54 C37.2684875,53.6453202 40.1478615,52.3152717 42,48.2364574 C40.1478534,46.7142909 39.3073885,44.6748827 39.167312,42.2955691 C38.639484,42.1460453 38.0972274,42.0470293 37.5486404,42 L37.5486404,42 Z" id="Path" fill="#F79239"></path>
                <path d="M40,43 C40.3266387,44.5540478 40.9502256,45.9729724 42.627968,47 C43.0137955,46.1959983 43.1023701,45.2997102 42.8803691,44.4459478 C41.9824604,43.8677575 41.0163351,43.3827618 40,43 L40,43 Z" id="Path" fill="#F79239"></path>
                <path d="M33.0165744,36 C34.8729295,37.7340131 36.2154651,39.606136 36.7790036,41.7391255 C37.4365862,41.7256087 38.0919957,41.8137776 38.7182308,42 C38.6374122,40.7764285 38.7321607,39.5483371 39,38.3478227 C37.3425421,36.8900092 35.3038663,36.1841431 33,36.0153451 L33.0165744,36 Z" id="Path" fill="#F79239"></path>
                <path d="M30.9148582,36.0159635 C29.1315748,36.3191514 28.0448907,37.3404264 27,38.3617013 C30.1764656,37.851067 32.2801824,38.9042544 33.0325031,42 C34.0103842,41.7805838 35.0036085,41.6630824 36,41.6489361 C35.0804949,38.7446797 33.5479863,36.6383028 30.9148618,36 L30.9148582,36.0159635 Z" id="Path" fill="#F79239"></path>
                <path d="M39.958115,40 C39.2513102,40.0684907 39.0942398,41.2191781 39,42.534242 C40.2565451,42.7397265 41.1518315,43.3287651 42,44 C41.7486898,42.4246576 41.1204203,41.0684911 39.958117,40.0136985 L39.958115,40 Z" id="Path" fill="#F79239"></path>
                <path d="M25.8268518,3.83280908 C25.47929,3.93761389 25.117679,3.99349066 24.7533475,3.99868888 C24.0760716,4.01758215 23.4097537,3.83188005 22.8487467,3.46787868 C22.3113975,3.1559114 21.9881305,2.59340076 22.0003337,1.99157172 C22.005612,1.38991818 22.3410915,0.835351048 22.8833754,0.5318523 C23.4644787,0.169347787 24.1467031,-0.0157371565 24.8399216,0.0010485756 C25.1552308,0.00486654269 25.4690045,0.043832298 25.7749087,0.117159259 L25.9480546,1.16218563 C25.6367681,0.99162555 25.2850837,0.900257633 24.9265002,0.896784852 C24.0434606,0.896784852 23.3855056,1.34465083 23.3855056,2.0081679 C23.3855056,2.67168497 24.0261485,3.11954447 24.9438123,3.11954447 C25.3174435,3.11248857 25.6822287,3.00936221 26,2.82095564 L25.8095397,3.83280692 L25.8268518,3.83280908 Z" id="Path" fill="#1C2651"></path>
                <path d="M26.8749998,2.51428717 L27.4709296,1.5020392 L28.0668613,2.53061142 L26.8749998,2.51428717 Z M25,3.78775501 L26.1337207,4 L26.5842994,3.2163319 L28.3575579,3.2163319 L28.8081404,4 L30,3.78775501 L27.5,-5.68434189e-14 L25,3.78775501 Z" id="Shape" fill="#1C2651"></path>
                <polygon id="Path" fill="#1C2651" points="31 0.101698654 32 -5.68434189e-14 32 3.89830135 31 4"></polygon>
                <path d="M34.2430267,0.79661418 L34.3386474,0.79661418 C34.9282937,0.79661418 35.2310818,1.00001048 35.2310818,1.35592974 C35.2310818,1.69491548 34.9282937,1.89830516 34.3545856,1.89830516 L34.2430267,1.89830516 L34.2430267,0.79661418 Z M33,3.96610209 L34.2430267,3.86440394 L34.2430267,2.16949067 L35.7569713,4 L37,3.66102308 L35.6613546,2.16949067 C36.2031864,1.94916085 36.4581682,1.62712186 36.4581682,1.16949563 C36.4581682,0.457626231 35.8207178,-5.68434189e-14 34.6095592,-5.68434189e-14 L33,-5.68434189e-14 L33,3.96610209 Z" id="Shape" fill="#1C2651"></path>
                <polygon id="Path" fill="#1C2651" points="37 -5.68434189e-14 39.9370591 2.13331972 39.9370591 0.23519804 41 0.141077991 41 4 38.0769581 1.85095958 38.0769581 3.7960392 37 3.87443855"></polygon>
                <path d="M42.7966027,2.81771642 C43.1255839,3.0269554 43.5078618,3.13815018 43.8982983,3.13817121 C44.3220276,3.13817121 44.5762691,3.00323756 44.5762691,2.80085026 C44.5762691,2.5141168 44.1355864,2.48038668 43.5084671,2.32858687 C42.5932126,2.12618421 42.1694833,1.8057338 42.1694833,1.23227567 C42.1694833,0.507019924 42.9321969,0.00103300693 44.1355864,0.00103300693 C44.7414564,-0.0141177088 45.339749,0.137642864 45.8644014,0.43955749 L45.1355881,1.08047586 C44.8613221,0.892920479 44.5361698,0.792910778 44.2033868,0.793751185 C43.8305023,0.793751185 43.5932142,0.928678249 43.5932142,1.11421696 C43.5932142,1.40094163 44.0508459,1.41779901 44.7288122,1.58647156 C45.5593173,1.7719949 46,2.17678707 46,2.71651289 C46,3.47549436 45.1694839,3.99835402 43.8983071,3.99835402 C43.2293053,4.01911378 42.5690034,3.84311271 42,3.4923671 L42.7796647,2.80085026 L42.7966027,2.81771642 Z" id="Path" fill="#1C2651"></path>
            </g>
        </g>
    </g>
</svg>